<svg xmlns="http://www.w3.org/2000/svg" viewBox="0 0 256 256" width="256" height="256">
  <rect width="256" height="256" rx="32" fill="#0288D1"/>
  <g fill="none" stroke="white" stroke-width="8" stroke-linecap="round">
    <!-- Pool water waves -->
    <path d="M40 110 Q68 90 96 110 Q124 130 152 110 Q180 90 216 110"/>
    <path d="M40 140 Q68 120 96 140 Q124 160 152 140 Q180 120 216 140"/>
    <path d="M40 170 Q68 150 96 170 Q124 190 152 170 Q180 150 216 170"/>
    <!-- Pool ladder -->
    <line x1="60" y1="55" x2="60" y2="105"/>
    <line x1="90" y1="55" x2="90" y2="105"/>
    <line x1="60" y1="70" x2="90" y2="70"/>
    <line x1="60" y1="90" x2="90" y2="90"/>
  </g>
</svg>
